<svg width="70" height="42" viewBox="0 0 70 42" fill="none" xmlns="http://www.w3.org/2000/svg">
	<g clip-path="url(#clip0_213_2)">
		<rect x="8" y="20" width="50" height="18" fill="white" />
		<path d="M66.9999 32.8671C66.9999 27.9061 63.6886 23.7805 59.3163 22.9074C59.4221 22.413 59.4801 21.8985 59.4801 21.3693C59.4801 17.5917 56.6351 14.5286 53.1263 14.5286C51.9413 14.5286 50.8324 14.8794 49.8824 15.4875C48.4499 7.77581 42.1273 1.96509 34.5437 1.96509C29.2531 1.96509 24.5769 4.79258 21.7454 9.12063C20.3332 8.03241 18.6044 7.39001 16.7355 7.39001C11.9736 7.39001 8.11405 11.546 8.11405 16.6731C8.11405 17.2041 8.15743 17.7232 8.23705 18.2294C3.46295 19.8464 0 24.649 0 30.3237C0 36.8868 4.63169 42.2848 10.5669 42.9348L10.5245 43H58.3456L58.3233 42.9667C63.1775 42.5631 67 38.1975 67 32.8671H66.9999ZM13.2099 26.4069H14.6697C15.1899 26.4069 15.606 26.2601 15.9216 25.9666C16.2374 25.673 16.3951 25.2867 16.3951 24.8116C16.3951 24.3173 16.2374 23.9193 15.9181 23.6259C15.5988 23.3323 15.1684 23.1856 14.6304 23.1856H13.2099V26.4069V26.4069ZM13.2099 33.2434H14.9531C15.7244 33.2434 16.3126 33.0852 16.7144 32.7684C17.1197 32.4517 17.3206 31.9882 17.3206 31.3818C17.3206 30.7561 17.1233 30.2925 16.7252 29.9874C16.3306 29.6861 15.7208 29.5354 14.8922 29.5354H13.2099V33.2434ZM12.0871 36.4648C11.1833 36.4648 10.5627 36.2987 10.2291 35.9666C9.89186 35.6344 9.72326 35.0125 9.72326 34.1009V22.6294C9.72326 21.6251 9.90257 20.9337 10.2577 20.5552C10.6165 20.1767 11.2406 19.9874 12.1265 19.9874H14.9962C16.5136 19.9874 17.6865 20.3467 18.5222 21.0689C19.3581 21.7873 19.7741 22.7955 19.7741 24.0855C19.7741 24.8928 19.6199 25.561 19.3115 26.0862C19.0029 26.6155 18.5259 27.0326 17.8802 27.3339C18.8809 27.5965 19.6487 28.0909 20.1796 28.8093C20.7139 29.5316 20.9793 30.4315 20.9793 31.5092C20.9793 33.062 20.5023 34.2787 19.5445 35.1515C18.5869 36.0283 17.2489 36.4648 15.5342 36.4648H12.0871ZM22.9845 22.4478C22.9845 21.5517 23.128 20.8797 23.4151 20.4393C23.7021 19.9989 24.1397 19.7788 24.728 19.7788C25.3161 19.7788 25.7539 19.9989 26.0407 20.4393C26.3277 20.8797 26.4712 21.5517 26.4712 22.4478V32.9886H29.4161C30.2555 32.9886 30.8796 33.1314 31.285 33.4173C31.6904 33.707 31.8948 34.1395 31.8948 34.719C31.8948 35.31 31.6904 35.7464 31.285 36.0361C30.8796 36.322 30.2555 36.4648 29.4161 36.4648H25.3484C24.4445 36.4648 23.824 36.2987 23.4904 35.9666C23.1532 35.6344 22.9845 35.0125 22.9845 34.097V22.4478V22.4478ZM32.5297 29.3887V22.4478C32.5297 21.5517 32.6732 20.8797 32.9601 20.4393C33.2471 19.9989 33.6847 19.7788 34.273 19.7788C34.8613 19.7788 35.2989 19.9989 35.5859 20.4393C35.8728 20.8797 36.0163 21.5517 36.0163 22.4478V28.9716C36.0163 30.4277 36.2745 31.5208 36.7875 32.2586C37.304 32.9923 38.0718 33.3593 39.094 33.3593C40.1091 33.3593 40.8767 32.9923 41.3933 32.2586C41.9133 31.5208 42.1717 30.4277 42.1717 28.9716V22.4478C42.1717 21.5517 42.3151 20.8797 42.6021 20.4393C42.8927 19.9989 43.3266 19.7788 43.9113 19.7788C44.4997 19.7788 44.9372 19.9989 45.2278 20.4393C45.5147 20.8797 45.6581 21.5517 45.6581 22.4478V29.3887C45.6581 31.7834 45.0807 33.6412 43.9221 34.9662C42.7671 36.291 41.1601 36.9514 39.1011 36.9514C37.0314 36.9514 35.4209 36.291 34.2658 34.9662C33.1073 33.6412 32.5297 31.7834 32.5297 29.3887V29.3887ZM54.6905 19.9874C55.5155 19.9874 56.1361 20.1341 56.5486 20.4239C56.9611 20.7136 57.1691 21.1577 57.1691 21.7525C57.1691 22.3359 56.9647 22.7684 56.5558 23.0582C56.1468 23.344 55.5227 23.4868 54.6905 23.4868H51.8532V26.43H54.3031C55.1353 26.43 55.7558 26.573 56.1684 26.8589C56.5773 27.1485 56.7817 27.585 56.7817 28.1721C56.7817 28.763 56.5773 29.1995 56.1684 29.4814C55.7558 29.7633 55.1353 29.9063 54.3031 29.9063H51.8532V32.9886H54.7944C55.6375 32.9886 56.2615 33.1314 56.667 33.4173C57.0723 33.707 57.2767 34.1395 57.2767 34.719C57.2767 35.31 57.0723 35.7464 56.667 36.0361C56.2615 36.322 55.6375 36.4648 54.7944 36.4648H50.7304C49.8265 36.4648 49.2059 36.2987 48.8724 35.9666C48.5352 35.6344 48.3665 35.0125 48.3665 34.097V22.6254C48.3665 21.6213 48.5459 20.9298 48.9011 20.5552C49.2598 20.1767 49.8838 19.9874 50.7699 19.9874H54.6905V19.9874Z" fill="#174195" />
	</g>
	<defs>
		<clipPath id="clip0_213_2">
			<rect width="70" height="42" fill="white" />
		</clipPath>
	</defs>
</svg>
