<svg width="74.8638mm" height="42.7455mm" viewBox="0 0 495 283" fill="none" xmlns="http://www.w3.org/2000/svg">
<g clip-path="url(#clip0_216_31)">
<rect x="132.241" y="79.4467" width="231.42" height="92.6881" fill="#FFFAFA"/>
<path d="M408.477 138.083C408.477 115.916 392.565 97.4808 371.555 93.5791C372.064 91.3702 372.342 89.0711 372.342 86.7066C372.342 69.8266 358.671 56.1395 341.81 56.1395C336.116 56.1395 330.788 57.7067 326.222 60.4243C319.339 25.9652 288.957 0.000488281 252.515 0.000488281C227.092 0.000488281 204.621 12.6349 191.015 31.9744C184.229 27.1117 175.922 24.2413 166.941 24.2413C144.059 24.2413 125.512 42.8119 125.512 65.7221C125.512 68.0946 125.721 70.4141 126.103 72.6761C103.162 79.9017 86.5215 101.362 86.5215 126.718C86.5215 156.045 108.778 180.166 137.299 183.07L137.095 183.361H366.891L366.783 183.213C390.11 181.409 408.478 161.902 408.478 138.083H408.477ZM149.999 109.216H157.014C159.514 109.216 161.513 108.56 163.03 107.249C164.547 105.937 165.305 104.211 165.305 102.088C165.305 99.8791 164.547 98.101 163.013 96.7897C161.479 95.4779 159.411 94.8223 156.825 94.8223H149.999V109.216V109.216ZM149.999 139.765H158.376C162.082 139.765 164.909 139.058 166.84 137.642C168.787 136.227 169.752 134.156 169.752 131.446C169.752 128.65 168.804 126.579 166.892 125.216C164.995 123.869 162.065 123.196 158.083 123.196H149.999V139.765ZM144.604 154.159C140.261 154.159 137.279 153.417 135.675 151.933C134.055 150.449 133.245 147.67 133.245 143.596V92.337C133.245 87.8494 134.106 84.76 135.813 83.0689C137.537 81.3772 140.536 80.5316 144.793 80.5316H158.583C165.874 80.5316 171.511 82.1369 175.527 85.3642C179.543 88.5743 181.543 93.079 181.543 98.8436C181.543 102.451 180.801 105.437 179.319 107.783C177.837 110.148 175.544 112.012 172.442 113.359C177.25 114.532 180.94 116.741 183.491 119.952C186.059 123.179 187.334 127.2 187.334 132.016C187.334 138.954 185.042 144.391 180.439 148.291C175.837 152.209 169.408 154.159 161.168 154.159H144.604ZM196.969 91.5258C196.969 87.5216 197.659 84.5186 199.038 82.5506C200.418 80.5831 202.52 79.5996 205.347 79.5996C208.173 79.5996 210.277 80.5831 211.655 82.5506C213.035 84.5186 213.724 87.5216 213.724 91.5258V138.626H227.875C231.909 138.626 234.908 139.264 236.856 140.542C238.804 141.836 239.786 143.769 239.786 146.358C239.786 148.999 238.804 150.949 236.856 152.244C234.908 153.521 231.909 154.159 227.875 154.159H208.329C203.985 154.159 201.003 153.417 199.401 151.933C197.78 150.449 196.969 147.67 196.969 143.579V91.5258V91.5258ZM242.837 122.54V91.5258C242.837 87.5216 243.527 84.5186 244.905 82.5506C246.285 80.5831 248.387 79.5996 251.214 79.5996C254.041 79.5996 256.144 80.5831 257.523 82.5506C258.902 84.5186 259.591 87.5216 259.591 91.5258V120.676C259.591 127.183 260.832 132.068 263.297 135.364C265.779 138.643 269.468 140.283 274.381 140.283C279.258 140.283 282.947 138.643 285.43 135.364C287.928 132.068 289.17 127.183 289.17 120.676V91.5258C289.17 87.5216 289.859 84.5186 291.238 82.5506C292.635 80.5831 294.72 79.5996 297.529 79.5996C300.357 79.5996 302.459 80.5831 303.856 82.5506C305.234 84.5186 305.923 87.5216 305.923 91.5258V122.54C305.923 133.241 303.149 141.542 297.581 147.463C292.031 153.383 284.309 156.334 274.415 156.334C264.469 156.334 256.73 153.383 251.18 147.463C245.613 141.542 242.837 133.241 242.837 122.54V122.54ZM349.327 80.5316C353.291 80.5316 356.273 81.1872 358.256 82.4819C360.238 83.7766 361.237 85.7607 361.237 88.4187C361.237 91.0257 360.255 92.9583 358.29 94.253C356.325 95.5299 353.326 96.1684 349.327 96.1684H335.693V109.319H347.465C351.464 109.319 354.446 109.959 356.429 111.236C358.394 112.53 359.376 114.48 359.376 117.104C359.376 119.744 358.394 121.695 356.429 122.955C354.446 124.214 351.464 124.853 347.465 124.853H335.693V138.626H349.826C353.878 138.626 356.876 139.264 358.825 140.542C360.772 141.836 361.755 143.769 361.755 146.358C361.755 148.999 360.772 150.949 358.825 152.244C356.876 153.521 353.878 154.159 349.826 154.159H330.297C325.954 154.159 322.972 153.417 321.369 151.933C319.749 150.449 318.938 147.67 318.938 143.579V92.3193C318.938 87.8322 319.8 84.7423 321.507 83.0689C323.231 81.3772 326.229 80.5316 330.487 80.5316H349.327V80.5316Z" fill="#174195"/>
<path d="M77.0213 257.232C74.9591 257.232 73.0933 256.78 71.4239 255.877C69.7741 254.954 68.4779 253.697 67.5352 252.106C66.5925 250.496 66.1211 248.689 66.1211 246.685C66.1211 244.682 66.5925 242.885 67.5352 241.294C68.4779 239.684 69.784 238.427 71.4534 237.523C73.1228 236.6 74.9886 236.139 77.0508 236.139C78.6613 236.139 80.1342 236.414 81.4698 236.964C82.8053 237.494 83.9444 238.289 84.8871 239.35L82.9722 241.206C81.4207 239.576 79.4861 238.761 77.1686 238.761C75.6367 238.761 74.2521 239.104 73.0147 239.792C71.7774 240.479 70.8052 241.432 70.0982 242.649C69.4108 243.847 69.0671 245.193 69.0671 246.685C69.0671 248.178 69.4108 249.533 70.0982 250.751C70.8052 251.949 71.7774 252.892 73.0147 253.579C74.2521 254.267 75.6367 254.61 77.1686 254.61C79.4665 254.61 81.401 253.785 82.9722 252.136L84.8871 253.992C83.9444 255.052 82.7955 255.857 81.4403 256.407C80.1048 256.957 78.6318 257.232 77.0213 257.232ZM97.9676 257.232C95.8858 257.232 94.0101 256.78 92.3407 255.877C90.6713 254.954 89.3555 253.687 88.3931 252.077C87.4504 250.466 86.979 248.669 86.979 246.685C86.979 244.702 87.4504 242.905 88.3931 241.294C89.3555 239.684 90.6713 238.427 92.3407 237.523C94.0101 236.6 95.8858 236.139 97.9676 236.139C100.03 236.139 101.896 236.6 103.565 237.523C105.234 238.427 106.54 239.684 107.483 241.294C108.426 242.885 108.897 244.682 108.897 246.685C108.897 248.689 108.426 250.496 107.483 252.106C106.54 253.697 105.234 254.954 103.565 255.877C101.896 256.78 100.03 257.232 97.9676 257.232ZM97.9676 254.61C99.4799 254.61 100.835 254.267 102.033 253.579C103.251 252.892 104.203 251.949 104.891 250.751C105.598 249.533 105.951 248.178 105.951 246.685C105.951 245.193 105.598 243.847 104.891 242.649C104.203 241.432 103.251 240.479 102.033 239.792C100.835 239.104 99.4799 238.761 97.9676 238.761C96.4553 238.761 95.0805 239.104 93.8432 239.792C92.6255 240.479 91.6632 241.432 90.9561 242.649C90.2687 243.847 89.925 245.193 89.925 246.685C89.925 248.178 90.2687 249.533 90.9561 250.751C91.6632 251.949 92.6255 252.892 93.8432 253.579C95.0805 254.267 96.4553 254.61 97.9676 254.61ZM131.135 236.374V256.996H128.719L116.346 241.618V256.996H113.4V236.374H115.816L128.189 251.753V236.374H131.135ZM141.402 238.937H134.332V236.374H151.389V238.937H144.319V256.996H141.402V238.937ZM166.701 251.841H155.742L153.474 256.996H150.44L159.778 236.374H162.695L172.063 256.996H168.97L166.701 251.841ZM165.67 249.484L161.222 239.379L156.773 249.484H165.67ZM189.015 246.302C190.213 246.636 191.156 247.245 191.843 248.129C192.531 248.993 192.874 250.093 192.874 251.429C192.874 253.216 192.197 254.591 190.842 255.553C189.506 256.515 187.552 256.996 184.979 256.996H175.139V236.374H184.39C186.747 236.374 188.563 236.846 189.84 237.789C191.136 238.731 191.784 240.037 191.784 241.707C191.784 242.787 191.529 243.72 191.018 244.505C190.527 245.291 189.86 245.89 189.015 246.302ZM178.085 238.761V245.36H184.125C185.637 245.36 186.796 245.085 187.601 244.535C188.426 243.965 188.838 243.14 188.838 242.06C188.838 240.98 188.426 240.165 187.601 239.615C186.796 239.045 185.637 238.761 184.125 238.761H178.085ZM184.861 254.61C186.531 254.61 187.788 254.335 188.632 253.785C189.477 253.235 189.899 252.371 189.899 251.193C189.899 248.895 188.22 247.746 184.861 247.746H178.085V254.61H184.861ZM197.436 236.374H200.382V256.996H197.436V236.374ZM206.556 236.374H209.502V254.433H220.667V256.996H206.556V236.374ZM224.048 236.374H226.994V256.996H224.048V236.374ZM233.168 236.374H241.858C244.038 236.374 245.973 236.807 247.662 237.671C249.351 238.535 250.657 239.753 251.58 241.324C252.523 242.875 252.994 244.663 252.994 246.685C252.994 248.708 252.523 250.505 251.58 252.077C250.657 253.628 249.351 254.836 247.662 255.7C245.973 256.564 244.038 256.996 241.858 256.996H233.168V236.374ZM241.682 254.433C243.351 254.433 244.814 254.109 246.071 253.461C247.348 252.813 248.33 251.91 249.017 250.751C249.704 249.573 250.048 248.217 250.048 246.685C250.048 245.154 249.704 243.808 249.017 242.649C248.33 241.471 247.348 240.558 246.071 239.91C244.814 239.262 243.351 238.937 241.682 238.937H236.114V254.433H241.682ZM270.358 251.841H259.399L257.131 256.996H254.096L263.435 236.374H266.352L275.72 256.996H272.627L270.358 251.841ZM269.327 249.484L264.879 239.379L260.43 249.484H269.327ZM278.796 236.374H287.487C289.667 236.374 291.601 236.807 293.29 237.671C294.979 238.535 296.285 239.753 297.209 241.324C298.151 242.875 298.623 244.663 298.623 246.685C298.623 248.708 298.151 250.505 297.209 252.077C296.285 253.628 294.979 254.836 293.29 255.7C291.601 256.564 289.667 256.996 287.487 256.996H278.796V236.374ZM287.31 254.433C288.979 254.433 290.443 254.109 291.7 253.461C292.976 252.813 293.958 251.91 294.646 250.751C295.333 249.573 295.677 248.217 295.677 246.685C295.677 245.154 295.333 243.808 294.646 242.649C293.958 241.471 292.976 240.558 291.7 239.91C290.443 239.262 288.979 238.937 287.31 238.937H281.742V254.433H287.31ZM318.101 254.433V256.996H303.135V236.374H317.688V238.937H306.081V245.271H316.422V247.775H306.081V254.433H318.101ZM330.783 236.374H339.473C341.653 236.374 343.588 236.807 345.277 237.671C346.966 238.535 348.272 239.753 349.195 241.324C350.138 242.875 350.609 244.663 350.609 246.685C350.609 248.708 350.138 250.505 349.195 252.077C348.272 253.628 346.966 254.836 345.277 255.7C343.588 256.564 341.653 256.996 339.473 256.996H330.783V236.374ZM339.297 254.433C340.966 254.433 342.429 254.109 343.686 253.461C344.963 252.813 345.945 251.91 346.632 250.751C347.319 249.573 347.663 248.217 347.663 246.685C347.663 245.154 347.319 243.808 346.632 242.649C345.945 241.471 344.963 240.558 343.686 239.91C342.429 239.262 340.966 238.937 339.297 238.937H333.729V254.433H339.297ZM355.122 236.374H358.068V256.996H355.122V236.374ZM378.53 246.568H381.358V254.61C380.337 255.455 379.148 256.103 377.793 256.555C376.438 257.006 375.024 257.232 373.551 257.232C371.469 257.232 369.593 256.78 367.924 255.877C366.255 254.954 364.939 253.697 363.976 252.106C363.034 250.496 362.562 248.689 362.562 246.685C362.562 244.682 363.034 242.875 363.976 241.265C364.939 239.654 366.255 238.397 367.924 237.494C369.613 236.59 371.508 236.139 373.61 236.139C375.26 236.139 376.752 236.414 378.088 236.964C379.443 237.494 380.592 238.28 381.535 239.32L379.708 241.147C378.058 239.556 376.065 238.761 373.728 238.761C372.157 238.761 370.742 239.104 369.485 239.792C368.248 240.46 367.276 241.402 366.569 242.62C365.862 243.818 365.508 245.173 365.508 246.685C365.508 248.178 365.862 249.533 366.569 250.751C367.276 251.949 368.248 252.892 369.485 253.579C370.742 254.267 372.147 254.61 373.698 254.61C375.544 254.61 377.155 254.168 378.53 253.285V246.568ZM386.998 236.374H389.944V256.996H386.998V236.374ZM400.213 238.937H393.143V236.374H410.2V238.937H403.13V256.996H400.213V238.937ZM425.512 251.841H414.553L412.285 256.996H409.25L418.589 236.374H421.506L430.874 256.996H427.781L425.512 251.841ZM424.481 249.484L420.033 239.379L415.584 249.484H424.481ZM433.95 236.374H436.896V254.433H448.061V256.996H433.95V236.374Z" fill="#174195"/>
</g>
<defs>
<clipPath id="clip0_216_31">
<rect width="495" height="283" fill="white"/>
</clipPath>
</defs>
</svg>
