<svg width="744" height="425" viewBox="0 0 744 425" fill="none" xmlns="http://www.w3.org/2000/svg">
<g clip-path="url(#clip0_216_26)">
<path d="M598.77 207.368C598.77 174.077 574.854 146.392 543.275 140.533C544.039 137.216 544.458 133.763 544.458 130.212C544.458 104.862 523.91 84.3073 498.568 84.3073C490.009 84.3073 482 86.6609 475.138 90.7421C464.792 38.9925 419.127 -0.000366211 364.354 -0.000366211C326.142 -0.000366211 292.368 18.9735 271.918 48.017C261.719 40.7144 249.232 36.4036 235.733 36.4036C201.341 36.4036 173.465 64.2924 173.465 98.6981C173.465 102.261 173.778 105.744 174.353 109.142C139.872 119.993 114.861 152.22 114.861 190.3C114.861 234.342 148.313 270.566 191.181 274.927L190.874 275.365H536.264L536.103 275.141C571.163 272.432 598.771 243.138 598.771 207.368H598.77ZM210.27 164.017H220.814C224.571 164.017 227.576 163.031 229.855 161.062C232.136 159.092 233.275 156.5 233.275 153.311C233.275 149.994 232.136 147.324 229.83 145.355C227.524 143.384 224.415 142.4 220.529 142.4H210.27V164.017V164.017ZM210.27 209.893H222.86C228.431 209.893 232.679 208.831 235.581 206.705C238.509 204.58 239.959 201.47 239.959 197.401C239.959 193.202 238.535 190.091 235.659 188.043C232.809 186.022 228.405 185.011 222.42 185.011H210.27V209.893ZM202.16 231.51C195.632 231.51 191.15 230.395 188.741 228.167C186.305 225.938 185.087 221.764 185.087 215.647V138.668C185.087 131.928 186.383 127.289 188.948 124.749C191.539 122.208 196.046 120.939 202.445 120.939H223.172C234.131 120.939 242.603 123.349 248.638 128.196C254.675 133.017 257.68 139.782 257.68 148.439C257.68 153.856 256.566 158.34 254.339 161.864C252.11 165.416 248.665 168.215 244.002 170.237C251.229 171.999 256.774 175.317 260.609 180.138C264.468 184.985 266.385 191.024 266.385 198.256C266.385 208.676 262.94 216.84 256.022 222.697C249.105 228.581 239.442 231.51 227.057 231.51H202.16ZM280.867 137.449C280.867 131.436 281.904 126.926 283.977 123.971C286.05 121.016 289.21 119.539 293.46 119.539C297.707 119.539 300.869 121.016 302.941 123.971C305.014 126.926 306.05 131.436 306.05 137.449V208.183H327.32C333.383 208.183 337.89 209.141 340.818 211.06C343.746 213.004 345.222 215.906 345.222 219.795C345.222 223.761 343.746 226.689 340.818 228.633C337.89 230.552 333.383 231.51 327.32 231.51H297.941C291.412 231.51 286.93 230.395 284.522 228.167C282.086 225.938 280.867 221.764 280.867 215.621V137.449V137.449ZM349.808 184.026V137.449C349.808 131.436 350.844 126.926 352.917 123.971C354.99 121.016 358.15 119.539 362.399 119.539C366.648 119.539 369.809 121.016 371.881 123.971C373.953 126.926 374.99 131.436 374.99 137.449V181.227C374.99 190.998 376.855 198.334 380.56 203.284C384.291 208.208 389.836 210.671 397.219 210.671C404.55 210.671 410.094 208.208 413.826 203.284C417.581 198.334 419.447 190.998 419.447 181.227V137.449C419.447 131.436 420.483 126.926 422.556 123.971C424.655 121.016 427.789 119.539 432.012 119.539C436.261 119.539 439.422 121.016 441.521 123.971C443.593 126.926 444.629 131.436 444.629 137.449V184.026C444.629 200.096 440.458 212.563 432.09 221.454C423.748 230.344 412.142 234.776 397.27 234.776C382.321 234.776 370.69 230.344 362.347 221.454C353.98 212.563 349.808 200.096 349.808 184.026V184.026ZM509.865 120.939C515.824 120.939 520.306 121.923 523.285 123.867C526.264 125.812 527.767 128.791 527.767 132.783C527.767 136.698 526.291 139.601 523.338 141.545C520.383 143.463 515.876 144.421 509.865 144.421H489.373V164.171H507.067C513.078 164.171 517.56 165.131 520.54 167.049C523.493 168.993 524.969 171.922 524.969 175.862C524.969 179.827 523.493 182.756 520.54 184.648C517.56 186.54 513.078 187.5 507.067 187.5H489.373V208.183H510.616C516.705 208.183 521.212 209.141 524.141 211.06C527.068 213.004 528.544 215.906 528.544 219.795C528.544 223.761 527.068 226.689 524.141 228.633C521.212 230.552 516.705 231.51 510.616 231.51H481.263C474.735 231.51 470.253 230.395 467.844 228.167C465.408 225.938 464.19 221.764 464.19 215.621V138.641C464.19 131.902 465.486 127.262 468.051 124.749C470.642 122.208 475.149 120.939 481.548 120.939H509.865V120.939Z" fill="white"/>
<path d="M104.881 385.601C101.799 385.601 99.0125 384.919 96.5228 383.556C94.0627 382.192 92.1212 380.31 90.6985 377.909C89.3054 375.479 88.6089 372.767 88.6089 369.773C88.6089 366.779 89.3054 364.082 90.6985 361.681C92.1212 359.251 94.0775 357.354 96.5672 355.991C99.057 354.627 101.843 353.945 104.926 353.945C107.238 353.945 109.372 354.331 111.328 355.101C113.284 355.872 114.944 356.998 116.307 358.48L114.218 360.57C111.787 358.11 108.72 356.88 105.015 356.88C102.555 356.88 100.317 357.443 98.3012 358.569C96.2857 359.696 94.6999 361.237 93.544 363.193C92.4176 365.149 91.8545 367.343 91.8545 369.773C91.8545 372.204 92.4176 374.397 93.544 376.353C94.6999 378.309 96.2857 379.851 98.3012 380.977C100.317 382.103 102.555 382.667 105.015 382.667C108.749 382.667 111.817 381.422 114.218 378.932L116.307 381.021C114.944 382.503 113.269 383.645 111.284 384.445C109.327 385.216 107.193 385.601 104.881 385.601ZM136.275 385.601C133.192 385.601 130.391 384.919 127.872 383.556C125.382 382.163 123.426 380.266 122.003 377.865C120.61 375.464 119.913 372.767 119.913 369.773C119.913 366.779 120.61 364.082 122.003 361.681C123.426 359.281 125.382 357.398 127.872 356.035C130.391 354.642 133.192 353.945 136.275 353.945C139.357 353.945 142.128 354.627 144.589 355.991C147.078 357.354 149.035 359.251 150.457 361.681C151.88 364.082 152.591 366.779 152.591 369.773C152.591 372.767 151.88 375.479 150.457 377.909C149.035 380.31 147.078 382.192 144.589 383.556C142.128 384.919 139.357 385.601 136.275 385.601ZM136.275 382.667C138.735 382.667 140.958 382.118 142.944 381.021C144.929 379.895 146.486 378.354 147.612 376.398C148.738 374.412 149.301 372.204 149.301 369.773C149.301 367.343 148.738 365.149 147.612 363.193C146.486 361.207 144.929 359.666 142.944 358.569C140.958 357.443 138.735 356.88 136.275 356.88C133.814 356.88 131.577 357.443 129.561 358.569C127.575 359.666 126.004 361.207 124.848 363.193C123.722 365.149 123.159 367.343 123.159 369.773C123.159 372.204 123.722 374.412 124.848 376.398C126.004 378.354 127.575 379.895 129.561 381.021C131.577 382.118 133.814 382.667 136.275 382.667ZM185.975 354.212V385.334H183.263L163.256 360.081V385.334H159.966V354.212H162.678L182.729 379.465V354.212H185.975ZM202.18 357.058H191.242V354.212H216.407V357.058H205.47V385.334H202.18V357.058ZM239.618 377.02H222.278L218.544 385.334H215.12L229.347 354.212H232.593L246.82 385.334H243.352L239.618 377.02ZM238.417 374.352L230.948 357.636L223.479 374.352H238.417ZM271.575 369.284C273.621 369.729 275.191 370.618 276.288 371.952C277.414 373.256 277.978 374.945 277.978 377.02C277.978 379.688 276.985 381.748 274.999 383.2C273.043 384.623 270.138 385.334 266.285 385.334H251.968V354.212H265.395C268.863 354.212 271.546 354.909 273.443 356.302C275.369 357.695 276.333 359.666 276.333 362.215C276.333 363.934 275.903 365.401 275.043 366.616C274.213 367.802 273.057 368.691 271.575 369.284ZM255.259 356.924V368.217H265.173C267.693 368.217 269.634 367.743 270.997 366.794C272.361 365.816 273.043 364.408 273.043 362.571C273.043 360.733 272.361 359.34 270.997 358.391C269.634 357.413 267.693 356.924 265.173 356.924H255.259ZM266.24 382.622C269.026 382.622 271.131 382.148 272.553 381.199C273.976 380.251 274.688 378.769 274.688 376.753C274.688 372.87 271.872 370.929 266.24 370.929H255.259V382.622H266.24ZM285.487 354.212H288.777V385.334H285.487V354.212ZM298.903 354.212H302.193V382.489H319.622V385.334H298.903V354.212ZM325.084 354.212H328.374V385.334H325.084V354.212ZM338.501 354.212H351.172C354.462 354.212 357.366 354.879 359.886 356.213C362.405 357.517 364.361 359.355 365.754 361.726C367.148 364.067 367.844 366.75 367.844 369.773C367.844 372.796 367.148 375.494 365.754 377.865C364.361 380.206 362.405 382.044 359.886 383.378C357.366 384.682 354.462 385.334 351.172 385.334H338.501V354.212ZM350.994 382.489C353.721 382.489 356.107 381.955 358.152 380.888C360.197 379.791 361.783 378.295 362.909 376.398C364.035 374.471 364.599 372.263 364.599 369.773C364.599 367.283 364.035 365.09 362.909 363.193C361.783 361.266 360.197 359.77 358.152 358.703C356.107 357.606 353.721 357.058 350.994 357.058H341.791V382.489H350.994ZM394.316 377.02H376.976L373.242 385.334H369.818L384.046 354.212H387.291L401.518 385.334H398.051L394.316 377.02ZM393.115 374.352L385.646 357.636L378.177 374.352H393.115ZM406.667 354.212H419.338C422.628 354.212 425.533 354.879 428.052 356.213C430.571 357.517 432.528 359.355 433.921 361.726C435.314 364.067 436.01 366.75 436.01 369.773C436.01 372.796 435.314 375.494 433.921 377.865C432.528 380.206 430.571 382.044 428.052 383.378C425.533 384.682 422.628 385.334 419.338 385.334H406.667V354.212ZM419.16 382.489C421.887 382.489 424.273 381.955 426.318 380.888C428.363 379.791 429.949 378.295 431.075 376.398C432.202 374.471 432.765 372.263 432.765 369.773C432.765 367.283 432.202 365.09 431.075 363.193C429.949 361.266 428.363 359.77 426.318 358.703C424.273 357.606 421.887 357.058 419.16 357.058H409.957V382.489H419.16ZM465.406 382.489V385.334H443.398V354.212H464.739V357.058H446.688V368.128H462.783V370.929H446.688V382.489H465.406ZM484.776 354.212H497.447C500.737 354.212 503.642 354.879 506.161 356.213C508.68 357.517 510.637 359.355 512.03 361.726C513.423 364.067 514.119 366.75 514.119 369.773C514.119 372.796 513.423 375.494 512.03 377.865C510.637 380.206 508.68 382.044 506.161 383.378C503.642 384.682 500.737 385.334 497.447 385.334H484.776V354.212ZM497.269 382.489C499.996 382.489 502.382 381.955 504.427 380.888C506.472 379.791 508.058 378.295 509.184 376.398C510.311 374.471 510.874 372.263 510.874 369.773C510.874 367.283 510.311 365.09 509.184 363.193C508.058 361.266 506.472 359.77 504.427 358.703C502.382 357.606 499.996 357.058 497.269 357.058H488.066V382.489H497.269ZM521.507 354.212H524.797V385.334H521.507V354.212ZM556.842 369.773H559.999V381.644C558.546 382.918 556.827 383.897 554.841 384.578C552.856 385.26 550.766 385.601 548.573 385.601C545.46 385.601 542.659 384.919 540.17 383.556C537.68 382.192 535.724 380.31 534.301 377.909C532.878 375.479 532.167 372.767 532.167 369.773C532.167 366.779 532.878 364.082 534.301 361.681C535.724 359.251 537.68 357.354 540.17 355.991C542.659 354.627 545.475 353.945 548.617 353.945C550.988 353.945 553.167 354.331 555.153 355.101C557.139 355.842 558.813 356.954 560.177 358.436L558.132 360.525C555.671 358.095 552.544 356.88 548.75 356.88C546.231 356.88 543.949 357.443 541.904 358.569C539.888 359.666 538.302 361.207 537.146 363.193C535.99 365.149 535.412 367.343 535.412 369.773C535.412 372.204 535.99 374.397 537.146 376.353C538.302 378.309 539.888 379.851 541.904 380.977C543.919 382.103 546.187 382.667 548.706 382.667C551.907 382.667 554.619 381.866 556.842 380.266V369.773ZM569.31 354.212H572.6V385.334H569.31V354.212ZM588.773 357.058H577.836V354.212H603V357.058H592.063V385.334H588.773V357.058ZM626.211 377.02H608.872L605.137 385.334H601.714L615.941 354.212H619.187L633.414 385.334H629.946L626.211 377.02ZM625.011 374.352L617.542 357.636L610.072 374.352H625.011ZM638.562 354.212H641.852V382.489H659.28V385.334H638.562V354.212Z" fill="white"/>
</g>
<defs>
<clipPath id="clip0_216_26">
<rect width="744" height="425" fill="white"/>
</clipPath>
</defs>
</svg>
